<?xml version="1.0" standalone="no"?>
<!DOCTYPE svg PUBLIC "-//W3C//DTD SVG 20010904//EN"
 "http://www.w3.org/TR/2001/REC-SVG-20010904/DTD/svg10.dtd">
<svg version="1.0" xmlns="http://www.w3.org/2000/svg"
 width="1216.000000pt" height="1216.000000pt" viewBox="0 0 1216.000000 1216.000000"
 preserveAspectRatio="xMidYMid meet">
<metadata>
Created by potrace 1.11, written by Peter Selinger 2001-2013
</metadata>
<g transform="translate(0.000000,1216.000000) scale(0.100000,-0.100000)"
fill="#000000" stroke="none">
<path d="M8874 10736 c-111 -76 -229 -240 -291 -406 -55 -146 -105 -318 -97
-331 3 -5 0 -9 -5 -9 -6 0 -10 -3 -9 -7 2 -10 -16 -116 -22 -128 -3 -7 -5 -13
-15 -70 -4 -27 -9 -54 -11 -60 -1 -5 -7 -32 -14 -60 -6 -27 -20 -81 -32 -120
-11 -38 -21 -74 -22 -80 -5 -25 -81 -248 -96 -280 -10 -20 -26 -63 -29 -77 -3
-11 -148 -297 -173 -343 -13 -22 -29 -44 -35 -48 -7 -4 -13 -12 -13 -17 0 -11
-73 -113 -128 -179 -55 -66 -150 -158 -212 -205 -94 -71 -93 -68 -15 -62 104
8 252 63 372 139 24 15 47 27 52 27 5 0 11 3 13 8 2 4 35 30 73 57 175 124
471 416 629 621 l49 64 75 -103 c41 -56 78 -104 81 -107 3 -3 18 -21 32 -40
15 -19 37 -46 49 -60 12 -14 38 -45 58 -69 21 -24 51 -58 67 -76 17 -18 84
-90 150 -160 66 -71 287 -296 490 -500 429 -431 624 -635 756 -790 48 -56 82
-96 94 -109 36 -41 144 -178 213 -271 44 -60 87 -117 94 -125 7 -9 19 -28 27
-43 8 -15 18 -27 23 -27 4 0 8 -4 8 -10 0 -8 35 -67 58 -95 7 -10 78 -127 120
-200 12 -22 27 -52 33 -67 6 -16 15 -28 20 -28 5 0 8 -3 7 -7 -1 -5 24 -61 55
-127 31 -65 57 -120 57 -122 0 -1 5 -15 12 -31 6 -15 12 -30 13 -33 1 -3 6
-16 12 -30 14 -33 82 -240 88 -265 2 -11 13 -58 25 -105 19 -76 47 -224 55
-290 15 -115 19 -192 19 -365 0 -181 -3 -229 -20 -367 -7 -54 -35 -227 -41
-253 -3 -11 -6 -29 -8 -40 -2 -11 -4 -22 -6 -25 -1 -3 -3 -9 -4 -15 -3 -24
-59 -194 -77 -235 -37 -82 -101 -215 -107 -220 -4 -3 -12 -16 -19 -30 -12 -25
-30 -54 -45 -74 -4 -6 -29 -41 -55 -77 -81 -115 -287 -335 -379 -406 -15 -12
-39 -31 -53 -43 -54 -46 -68 -57 -142 -112 -42 -32 -82 -58 -88 -58 -6 0 -8
-5 -5 -10 3 -5 2 -10 -4 -10 -5 0 -40 -21 -78 -47 -37 -25 -129 -84 -203 -129
-74 -46 -139 -87 -145 -91 -5 -5 -21 -14 -35 -21 -14 -7 -43 -23 -65 -37 -22
-14 -47 -28 -55 -32 -8 -4 -17 -9 -20 -12 -4 -5 -27 -18 -115 -65 -11 -6 -22
-14 -25 -17 -3 -3 -20 -11 -37 -18 -18 -8 -33 -17 -33 -22 0 -4 -10 -11 -22
-14 -11 -4 -44 -21 -72 -38 -124 -74 -269 -157 -273 -157 -2 0 -19 -10 -36
-23 -40 -28 -62 -42 -109 -67 -20 -11 -40 -25 -44 -31 -4 -7 -3 -10 2 -7 5 3
77 27 159 52 83 26 159 51 170 56 20 9 96 34 105 35 8 0 103 36 125 46 11 5
29 11 40 14 23 4 202 75 330 130 17 7 46 20 65 28 136 58 349 164 475 235 131
74 305 184 305 193 0 5 5 9 11 9 10 0 163 111 235 172 131 109 334 316 394
402 8 12 20 27 27 34 6 7 38 52 70 100 32 48 61 89 65 90 5 2 8 12 8 23 0 10
4 19 8 19 8 0 85 148 140 270 18 40 80 214 87 244 1 6 5 18 8 26 14 34 38 143
33 148 -3 3 -2 10 3 16 5 6 11 27 14 47 2 20 7 41 10 45 2 5 7 36 11 69 3 33
8 71 11 85 21 122 29 268 29 505 -1 248 -6 365 -14 365 -4 0 -7 10 -7 23 -1
20 -5 48 -18 142 -6 46 -34 171 -57 255 -11 41 -21 82 -23 90 -2 8 -9 31 -16
50 -18 52 -22 64 -24 70 -5 20 -19 60 -30 85 -12 27 -26 62 -30 75 -3 8 -21
50 -49 113 -14 31 -26 58 -25 60 0 1 -18 35 -40 76 -23 41 -41 80 -41 87 0 8
-4 14 -9 14 -5 0 -21 24 -35 54 -50 102 -269 418 -391 565 -16 20 -33 40 -38
46 -17 22 -112 134 -157 184 -124 139 -286 305 -720 740 -477 477 -569 572
-665 685 -22 26 -59 67 -81 92 -23 24 -40 44 -37 44 2 0 -3 7 -11 16 -9 9 -29
32 -44 52 -15 21 -29 39 -32 42 -16 14 -106 138 -164 226 -37 54 -72 106 -78
115 -113 167 -296 588 -323 744 -1 6 -3 12 -4 15 -4 8 -11 42 -16 80 -3 19
-10 50 -15 70 -9 34 -16 89 -27 220 -3 36 -6 66 -7 67 -1 1 -24 -13 -52 -31z"/>
<path d="M9105 8564 c-16 -35 -33 -63 -37 -64 -5 0 -8 -4 -8 -10 0 -5 -13 -32
-30 -60 -16 -27 -27 -50 -24 -50 3 0 -3 -12 -14 -27 -11 -16 -23 -38 -26 -50
-4 -13 -12 -23 -17 -23 -5 0 -9 -9 -9 -20 0 -11 -4 -20 -8 -20 -5 0 -13 -12
-18 -27 -13 -36 -2 -75 63 -223 32 -73 136 -284 168 -341 19 -32 31 -59 27
-59 -4 0 -2 -4 3 -8 6 -4 15 -16 21 -27 6 -11 28 -51 49 -90 21 -38 47 -83 56
-100 10 -16 26 -46 36 -65 9 -19 33 -62 52 -95 19 -33 36 -66 37 -73 2 -8 9
-21 17 -30 14 -15 183 -354 220 -442 51 -118 123 -308 133 -349 2 -9 15 -56
29 -106 26 -93 31 -115 41 -175 3 -19 7 -46 10 -60 10 -50 15 -96 19 -160 2
-36 4 -67 5 -70 7 -25 -5 -265 -15 -320 -3 -14 -8 -41 -11 -60 -10 -68 -54
-222 -85 -298 -27 -68 -115 -227 -143 -259 -6 -7 -22 -27 -36 -45 -26 -35
-189 -199 -230 -233 -41 -34 -125 -90 -129 -86 -2 1 -7 -2 -10 -7 -3 -5 -36
-25 -72 -45 -99 -54 -253 -109 -349 -123 -14 -2 -47 -7 -75 -12 -27 -4 -95 -7
-150 -6 -84 3 -133 10 -260 38 -14 3 -87 26 -105 33 -8 4 -17 7 -20 8 -3 1
-26 11 -53 23 -26 12 -48 20 -50 19 -1 -1 -16 8 -34 21 -17 12 -34 22 -37 22
-12 0 -77 64 -96 94 -36 60 -46 106 -37 186 4 41 8 81 9 88 1 6 4 12 8 12 4 0
7 6 7 13 0 13 33 88 42 97 4 3 12 17 20 33 28 54 179 212 214 223 9 3 17 9 17
14 0 4 30 21 67 36 89 38 200 41 234 7 45 -45 24 -101 -75 -197 -34 -32 -51
-53 -38 -47 12 7 22 10 22 7 0 -11 117 38 164 68 64 41 90 70 112 121 29 69
11 150 -41 188 -81 59 -280 51 -460 -19 -22 -9 -42 -16 -45 -16 -7 -1 -51 -17
-75 -27 -11 -5 -60 -26 -110 -47 -103 -43 -158 -77 -218 -138 -42 -42 -77 -83
-77 -90 0 -2 -12 -25 -27 -52 -28 -49 -50 -102 -58 -139 -3 -11 -9 -31 -15
-45 -6 -14 -19 -70 -29 -125 -29 -153 -20 -342 23 -461 21 -61 68 -159 78
-162 4 -2 8 -8 8 -14 0 -28 162 -198 238 -250 26 -17 49 -34 52 -37 3 -3 23
-16 45 -28 22 -11 56 -30 77 -41 20 -11 39 -18 42 -15 3 4 6 1 6 -5 0 -7 3
-11 8 -10 4 1 28 -8 55 -20 44 -20 203 -72 233 -76 8 -1 16 -5 20 -8 3 -4 12
-4 20 -1 8 3 14 1 14 -4 0 -5 8 -9 18 -9 9 -1 64 -8 122 -17 58 -9 139 -19
180 -22 141 -11 407 -6 489 10 13 2 49 7 80 11 31 3 58 8 61 9 3 2 25 6 49 10
24 3 54 11 68 16 14 5 29 7 34 3 5 -3 9 -1 9 3 0 5 8 9 18 10 87 7 453 160
511 215 12 10 23 18 26 18 15 -1 129 92 195 159 69 71 200 246 200 269 0 6 4
12 8 14 4 2 21 30 38 63 17 33 36 69 42 80 13 21 51 112 52 120 0 3 7 22 16
43 8 20 17 44 19 52 2 8 15 60 29 114 14 55 28 129 32 165 14 120 8 356 -11
451 -3 14 -7 36 -10 50 -13 67 -18 89 -32 135 -8 28 -17 57 -20 65 -4 8 -7 21
-9 27 -6 30 -61 166 -102 253 -25 52 -45 98 -44 103 1 4 -2 7 -8 7 -6 0 -9 3
-8 8 2 7 -70 142 -81 152 -3 3 -15 21 -25 40 -23 41 -145 230 -160 247 -29 33
-36 43 -36 51 0 4 -8 17 -17 28 -28 30 -113 143 -113 149 0 5 -27 39 -51 64
-8 9 -29 34 -45 56 -16 22 -44 56 -61 75 -18 19 -33 38 -33 42 0 4 -6 13 -13
20 -7 7 -49 56 -92 108 -44 52 -84 100 -90 106 -5 6 -21 25 -35 43 -14 18 -35
44 -47 58 -12 15 -30 42 -40 60 -10 18 -21 33 -25 33 -5 0 -8 4 -8 9 0 6 -16
37 -35 70 -20 33 -36 64 -36 68 0 5 -6 15 -13 23 -16 19 -85 171 -91 197 -2
12 -8 29 -13 39 -10 18 -22 48 -27 67 -2 4 -4 9 -5 12 -1 3 -4 10 -5 15 -1 6
-3 11 -4 13 -2 1 -4 13 -7 26 -2 14 -9 30 -15 38 -6 7 -9 13 -6 13 3 0 1 15
-4 33 -6 17 -12 40 -15 50 -2 9 -7 27 -10 40 -8 30 -19 90 -29 157 -3 19 -8
43 -11 53 -3 10 -7 32 -10 50 -2 18 -6 41 -9 52 -2 11 -17 84 -34 163 -16 79
-30 145 -32 147 -2 1 -17 -26 -34 -61z"/>
<path d="M7237 7584 c-1 -1 -73 -5 -159 -8 -86 -4 -165 -9 -176 -11 -10 -2
-54 -6 -98 -10 -43 -3 -90 -8 -104 -10 -14 -2 -47 -7 -74 -9 -26 -3 -67 -8
-90 -12 -22 -3 -52 -8 -66 -9 -30 -3 -96 -14 -130 -20 -14 -3 -45 -8 -70 -11
-25 -3 -48 -8 -51 -10 -3 -1 -28 -6 -55 -9 -27 -3 -64 -11 -82 -17 -18 -5 -42
-8 -52 -5 -11 3 -20 1 -22 -4 -2 -5 -19 -11 -38 -14 -39 -5 -75 -13 -75 -15 0
-2 -14 -5 -60 -13 -56 -11 -80 -17 -260 -62 -99 -25 -189 -48 -200 -50 -43
-10 -347 -99 -469 -137 -70 -22 -133 -41 -140 -43 -6 -1 -18 -5 -26 -8 -22
-10 -251 -87 -275 -94 -11 -2 -27 -7 -35 -11 -8 -3 -17 -6 -20 -7 -6 -2 -30
-11 -75 -28 -16 -7 -32 -12 -35 -12 -3 0 -18 -5 -35 -12 -54 -20 -70 -26 -80
-28 -9 -3 -78 -29 -130 -50 -11 -4 -25 -9 -30 -10 -9 -2 -188 -71 -260 -100
-11 -5 -22 -9 -25 -10 -3 -1 -16 -6 -30 -12 -22 -10 -152 -64 -228 -95 -15 -6
-30 -11 -34 -10 -5 1 -8 -3 -8 -8 0 -6 -7 -10 -16 -10 -8 0 -41 -12 -72 -27
-31 -15 -59 -27 -62 -28 -3 -1 -22 -9 -42 -18 -21 -10 -42 -17 -48 -17 -5 0
-10 -4 -10 -9 0 -5 -11 -12 -25 -15 -14 -4 -63 -24 -109 -46 -46 -22 -89 -40
-95 -40 -6 0 -11 -4 -11 -10 0 -5 -6 -10 -14 -10 -14 0 -564 -275 -711 -355
-147 -81 -171 -94 -215 -117 -25 -12 -47 -26 -48 -31 -2 -4 -8 -5 -13 -1 -5 3
-9 0 -9 -5 0 -6 -4 -11 -9 -11 -4 0 -88 -45 -185 -100 -96 -55 -180 -100 -186
-100 -5 0 -10 -4 -10 -8 0 -5 -12 -15 -27 -23 -16 -7 -63 -35 -105 -61 -43
-26 -78 -45 -78 -42 0 3 -15 -6 -32 -19 -18 -13 -85 -55 -148 -93 -121 -72
-177 -107 -197 -124 -7 -5 -16 -10 -21 -10 -5 0 -27 -13 -49 -29 -22 -16 -55
-37 -74 -46 -19 -10 -36 -21 -39 -24 -6 -8 -88 -61 -94 -61 -2 0 -40 -24 -83
-52 -43 -29 -91 -59 -106 -67 -15 -8 -27 -18 -27 -23 0 -4 -5 -8 -10 -8 -10 0
-88 -48 -100 -60 -3 -3 -30 -21 -60 -40 -30 -19 -57 -38 -58 -42 -2 -5 -7 -8
-12 -8 -13 0 -220 -141 -220 -150 0 -4 21 -19 48 -33 26 -13 123 -70 217 -126
93 -55 173 -101 177 -101 4 0 8 -4 8 -10 0 -5 4 -10 9 -10 12 0 305 -182 309
-192 2 -4 8 -8 13 -8 6 0 37 -18 69 -40 32 -22 64 -40 69 -40 6 0 11 -3 11 -8
0 -4 20 -18 45 -32 25 -14 45 -27 45 -31 0 -3 11 -11 24 -17 19 -8 122 -74
256 -162 163 -107 261 -170 266 -170 2 0 10 -5 17 -11 7 -5 55 -38 108 -72 53
-34 105 -68 115 -75 11 -7 27 -15 37 -18 9 -4 17 -9 17 -13 0 -4 17 -15 38
-26 20 -11 39 -22 42 -25 3 -3 48 -32 100 -64 52 -32 107 -67 122 -77 15 -11
30 -19 33 -19 4 0 26 -13 50 -30 24 -16 48 -30 53 -30 6 0 12 -3 14 -7 4 -10
57 -42 81 -50 9 -3 17 -9 17 -14 0 -5 4 -9 10 -9 5 0 42 -20 82 -44 132 -79
213 -124 219 -122 4 0 15 -6 25 -14 11 -9 39 -27 64 -40 25 -13 72 -39 105
-57 33 -17 148 -76 255 -130 107 -54 197 -101 198 -105 2 -5 9 -8 16 -8 7 0
43 -15 82 -34 80 -39 199 -91 232 -101 12 -3 22 -11 22 -16 0 -5 3 -8 8 -7 4
1 88 -30 187 -69 99 -39 209 -81 245 -93 36 -12 74 -26 85 -30 11 -5 63 -23
115 -40 52 -17 115 -37 140 -45 25 -9 54 -17 65 -19 11 -3 49 -13 85 -24 127
-38 155 -46 180 -49 14 -2 41 -8 60 -13 19 -5 38 -10 42 -10 4 -1 22 -6 40
-11 38 -11 173 -40 205 -44 11 -2 30 -6 41 -9 11 -4 33 -9 48 -11 16 -2 40 -6
54 -9 14 -3 41 -8 60 -10 20 -2 47 -7 60 -10 14 -3 45 -8 70 -11 25 -3 56 -7
69 -10 13 -2 41 -5 62 -7 22 -1 39 -4 39 -7 0 -4 19 -6 43 -7 23 0 71 -4 107
-8 139 -16 338 -28 482 -30 65 0 118 -3 118 -6 0 -3 21 -5 48 -6 54 -1 102 -9
187 -31 33 -8 65 -16 70 -18 6 -1 17 -5 25 -8 8 -4 27 -8 41 -11 15 -2 35 -9
45 -14 11 -6 46 -20 79 -33 79 -29 208 -91 217 -104 4 -5 8 -7 8 -3 0 4 23 -6
50 -22 28 -17 55 -30 60 -30 6 0 10 -4 10 -10 0 -5 5 -10 10 -10 6 0 58 -33
117 -73 58 -39 113 -76 121 -82 9 -5 27 -20 41 -33 31 -26 22 -26 98 -3 34 10
64 16 67 13 3 -3 6 0 6 7 0 7 4 10 10 6 5 -3 24 1 42 8 18 8 36 15 41 15 4 1
25 5 47 8 22 4 40 10 40 13 0 4 10 7 23 8 23 2 81 18 129 35 l28 10 -35 24
c-20 13 -60 42 -90 64 -30 22 -59 40 -65 40 -5 0 -10 3 -10 8 0 4 -17 16 -37
27 -20 11 -41 25 -47 30 -28 26 -329 178 -353 178 -7 0 -13 5 -13 10 0 6 -3 8
-6 4 -3 -3 -22 0 -43 8 -44 15 -118 25 -308 40 -26 2 -68 7 -93 10 -49 7 -74
10 -165 20 -62 6 -122 14 -165 21 -14 2 -45 6 -70 9 -25 2 -56 7 -70 9 -21 5
-106 18 -319 52 -18 3 -43 8 -55 10 -33 8 -89 16 -108 17 -10 1 -18 4 -18 7 0
3 -10 6 -22 6 -13 1 -36 5 -53 8 -16 4 -55 11 -85 17 -30 6 -68 14 -85 19 -16
5 -46 11 -65 14 -19 3 -50 10 -69 15 -18 6 -36 10 -40 9 -3 0 -8 1 -11 2 -6 2
-26 7 -59 14 -13 3 -69 17 -125 32 -55 14 -108 27 -116 29 -8 2 -51 14 -95 25
-44 12 -87 23 -95 25 -8 2 -16 4 -17 5 -2 2 -6 3 -10 4 -5 1 -17 5 -28 8 -11
4 -54 16 -95 28 -41 12 -82 25 -90 28 -8 3 -17 6 -20 7 -3 1 -25 7 -50 15 -25
7 -49 17 -54 22 -6 4 -16 8 -24 8 -35 0 -565 201 -732 278 -36 16 -87 40 -115
52 -94 42 -307 149 -321 161 -8 6 -14 8 -14 4 0 -5 -8 -2 -17 6 -10 8 -40 25
-68 39 -27 14 -51 28 -53 33 -2 4 -7 7 -12 7 -7 0 -167 91 -234 133 -121 75
-203 128 -213 136 -7 6 -16 11 -22 11 -5 0 -11 3 -13 8 -5 11 -66 52 -78 52
-5 0 -10 4 -10 10 0 5 -13 16 -29 25 -16 8 -35 20 -43 27 -7 7 -29 24 -49 38
-20 14 -51 36 -68 50 -69 53 -246 194 -251 199 -3 3 -41 37 -85 76 -248 217
-428 403 -694 721 -20 23 -88 112 -143 188 -21 28 -34 54 -29 59 7 7 354 185
366 187 2 1 65 30 139 65 74 36 139 65 145 65 6 0 11 4 11 10 0 5 3 9 8 8 4
-1 32 9 62 24 71 33 152 70 265 120 128 57 139 61 148 60 4 -1 7 3 7 8 0 5 3
9 8 9 4 -1 10 0 15 1 4 1 10 3 15 5 4 1 38 16 75 33 38 18 72 32 75 32 4 1 25
9 47 20 22 11 43 19 46 20 4 0 28 10 55 22 27 12 54 23 59 24 6 1 51 18 100
39 94 38 293 115 310 119 6 2 19 7 30 11 19 7 98 37 230 85 33 12 65 23 70 24
6 1 48 15 95 31 47 16 87 30 90 30 3 1 50 15 105 32 204 65 297 93 303 91 4
-1 14 2 22 5 13 5 99 29 150 41 112 28 190 46 210 50 14 3 57 12 95 20 39 8
87 17 109 20 21 4 43 9 49 13 7 4 8 0 3 -13 -7 -16 -17 -51 -24 -86 -1 -5 -2
-9 -3 -10 -18 -59 -70 -385 -75 -476 -12 -177 -8 -389 11 -557 7 -60 54 -297
67 -335 3 -8 18 -55 33 -105 15 -49 33 -103 41 -120 7 -16 14 -36 16 -44 9
-42 159 -326 225 -423 41 -62 78 -115 82 -118 4 -3 12 -12 17 -21 46 -82 331
-364 454 -450 19 -13 37 -27 40 -30 12 -14 160 -109 170 -109 5 0 10 -3 10 -7
0 -5 10 -13 23 -19 12 -6 56 -28 97 -50 75 -40 235 -114 255 -119 5 -1 17 -5
25 -8 31 -14 188 -66 211 -71 13 -3 48 -12 77 -20 29 -8 55 -14 57 -15 3 0 20
-3 38 -6 17 -3 41 -8 52 -10 11 -2 20 -4 20 -5 0 -2 69 -12 195 -27 133 -16
579 -7 633 12 7 3 32 7 57 9 25 3 56 7 70 10 14 4 36 8 50 11 14 3 36 7 50 10
14 3 36 8 50 11 28 6 40 9 200 60 63 20 120 39 125 43 6 3 15 6 20 7 6 1 31
11 55 22 25 11 70 30 100 43 30 13 57 26 60 29 7 7 63 34 70 32 3 0 17 8 30
18 l25 19 -35 -4 c-19 -2 -53 -7 -75 -9 -152 -19 -286 -27 -455 -28 -233 -1
-349 8 -512 38 -18 3 -45 7 -59 8 -14 2 -31 6 -37 10 -7 4 -12 5 -12 2 0 -2
-15 0 -32 5 -37 11 -62 18 -97 25 -22 4 -108 34 -238 81 -28 11 -58 25 -67 32
-9 8 -16 10 -16 7 0 -7 -37 12 -147 75 -140 79 -336 246 -435 369 -129 162
-245 392 -295 585 -13 54 -24 103 -28 130 -3 17 -7 39 -9 50 -26 113 -27 457
-2 581 2 12 7 39 11 60 11 76 15 93 25 118 5 15 7 26 5 26 -3 0 1 16 9 35 8
19 13 35 11 35 -5 0 57 176 81 230 9 19 34 71 57 115 22 44 45 90 51 102 6 13
14 23 19 23 4 0 7 5 7 11 0 11 93 149 120 179 8 9 34 39 56 66 92 109 224 225
353 308 83 55 267 146 294 146 9 0 17 4 17 10 0 5 3 9 8 8 4 -1 32 6 63 16 61
18 88 25 134 32 17 3 37 7 45 10 71 25 507 25 581 0 8 -3 28 -7 44 -10 41 -7
65 -12 161 -35 40 -10 191 -62 243 -83 14 -6 28 -12 31 -13 55 -19 267 -124
346 -172 39 -24 75 -43 79 -43 4 0 16 -10 26 -22 11 -11 19 -15 19 -8 0 7 -26
39 -59 71 -32 32 -57 59 -54 59 2 0 -13 15 -33 33 -21 17 -54 47 -73 66 -28
26 -175 147 -236 194 -66 50 -106 77 -114 77 -5 0 -11 3 -13 8 -3 7 -102 72
-178 116 -111 65 -397 201 -414 197 -4 -1 -13 2 -20 7 -10 9 -214 80 -246 87
-8 2 -28 8 -45 15 -16 6 -31 11 -32 11 -16 -5 -33 1 -28 9 4 6 10 8 13 6 7 -4
77 -12 192 -23 63 -5 108 -10 160 -17 25 -3 65 -9 90 -12 25 -3 68 -9 95 -14
28 -5 66 -11 85 -14 19 -3 103 -19 185 -36 83 -17 164 -34 180 -36 17 -3 37
-8 45 -11 8 -3 24 -8 35 -10 11 -2 90 -24 175 -49 85 -25 161 -46 168 -46 6
-1 12 -6 12 -11 0 -6 3 -8 6 -4 9 8 356 -119 422 -155 18 -10 39 -18 47 -18 8
0 15 -4 15 -8 0 -5 19 -15 43 -22 23 -8 44 -17 47 -20 9 -10 80 -40 80 -34 0
4 -21 38 -47 76 -85 129 -276 308 -434 408 -30 19 -57 39 -61 45 -4 5 -8 7 -8
2 0 -4 -17 4 -39 17 -48 30 -188 97 -284 135 -136 54 -424 135 -517 146 -8 1
-28 4 -45 8 -26 6 -71 13 -140 22 -183 26 -343 37 -568 39 -92 1 -169 1 -170
0z"/>
</g>
</svg>
