<svg xmlns="http://www.w3.org/2000/svg" width="30.34" height="27.985" viewBox="0 0 30.34 27.985">
  <path id="Path_475" data-name="Path 475" d="M22.562,12.491s1.227-.933.293-1.866-1.842.271-1.842.271l-9.389,9.391s-2.2,2.838-3.871,1.122,1.121-3.872,1.121-3.872L21.185,5.227s2.873-3.165,5.574-.466-.477,5.579-.477,5.579L12.449,24.173s-4.426,5.113-8.523,1.015,1.066-8.474,1.066-8.474l10.5-10.505s1.176-.982.3-1.866-1.865.3-1.865.3L1.873,16.689A7.126,7.126,0,0,0,2.4,26.757a7.13,7.13,0,0,0,10.072.533L29.039,10.725S32.353,7.07,28.4,3.117,20.8,2.478,20.8,2.478L6.543,16.728s-3.65,2.969-.338,6.279,6.227-.39,6.227-.39Z" transform="translate(0 -1.178)" fill="#bec7b0"/>
</svg>
