<svg xmlns="http://www.w3.org/2000/svg" width="21.233" height="21.95" viewBox="0 0 21.233 21.95">
  <g id="download-button" transform="translate(-0.489)">
    <path id="Path_333" data-name="Path 333" d="M18.775,19.1v5.014H3.437V19.1H.489v6.488a1.474,1.474,0,0,0,1.476,1.473H20.246a1.474,1.474,0,0,0,1.476-1.473V19.1Z" transform="translate(0 -5.116)" fill="#5b752a"/>
    <path id="Path_334" data-name="Path 334" d="M12.978,13.492l-4.22-5.1s-.642-.606.054-.606H11.19V.362S11.1,0,11.64,0h3.348c.392,0,.384.3.384.3V7.633h2.2c.845,0,.209.635.209.635s-3.591,4.767-4.092,5.267A.468.468,0,0,1,12.978,13.492Z" transform="translate(-2.142)" fill="#5b752a"/>
  </g>
</svg>
