<svg xmlns="http://www.w3.org/2000/svg" width="18.583" height="11.995" viewBox="0 0 18.583 11.995">
  <g id="email" transform="translate(0 -59.733)">
    <g id="Group_263" data-name="Group 263" transform="translate(0 59.733)">
      <g id="Group_262" data-name="Group 262">
        <path id="Path_204" data-name="Path 204" d="M17.654,59.733H.929A.865.865,0,0,0,0,60.515V70.946a.865.865,0,0,0,.929.782H17.654a.865.865,0,0,0,.929-.782V60.515A.865.865,0,0,0,17.654,59.733Zm.31,11.213a.288.288,0,0,1-.31.261H.929a.288.288,0,0,1-.31-.261V60.515a.288.288,0,0,1,.31-.261H17.654a.288.288,0,0,1,.31.261V70.946Z" transform="translate(0 -59.733)" fill="#fff"/>
        <path id="Path_205" data-name="Path 205" d="M49.955,93.866a.31.31,0,0,0-.226.071l-7.145,6a.62.62,0,0,1-.8,0l-7.145-6a.31.31,0,0,0-.4.474l7.145,6a1.237,1.237,0,0,0,1.594,0l7.145-6a.31.31,0,0,0-.172-.546Z" transform="translate(-32.894 -92.626)" fill="#fff"/>
        <path id="Path_206" data-name="Path 206" d="M38.723,272.932a.31.31,0,0,0-.3.1l-4.336,4.646a.31.31,0,1,0,.453.422l4.336-4.646a.31.31,0,0,0-.154-.519Z" transform="translate(-32.766 -267.439)" fill="#fff"/>
        <path id="Path_207" data-name="Path 207" d="M341.742,273.029a.31.31,0,1,0-.453.422l4.336,4.646a.31.31,0,0,0,.453-.422Z" transform="translate(-328.817 -267.439)" fill="#fff"/>
      </g>
    </g>
  </g>
</svg>
