<svg xmlns="http://www.w3.org/2000/svg" width="18.583" height="18.228" viewBox="0 0 18.583 18.228">
  <g id="placeholder" transform="translate(0 -0.585)">
    <path id="Path_202" data-name="Path 202" d="M26.065,16.837a2.127,2.127,0,1,0-2.127-2.127A2.129,2.129,0,0,0,26.065,16.837Zm0-3.646a1.519,1.519,0,1,1-1.519,1.519A1.521,1.521,0,0,1,26.065,13.192Z" transform="translate(-16.666 -8.354)" fill="#fff"/>
    <path id="Path_203" data-name="Path 203" d="M15.256,11.825H13.08l.926-1.337a6.638,6.638,0,0,0-.541-8.2,5.826,5.826,0,0,0-8.239,0,6.636,6.636,0,0,0-.548,8.188l.932,1.346H3.327L0,18.813H18.583Zm-10.085-1.7a6,6,0,0,1,.485-7.4,5.218,5.218,0,0,1,7.38,0,6,6,0,0,1,.478,7.413L9.345,16.153l-3-4.327h0ZM3.711,12.433H6.031L9.345,17.22l3.314-4.787h2.212l2.749,5.772H.962Z" fill="#fff"/>
  </g>
</svg>
