<svg id="Group_553" data-name="Group 553" xmlns="http://www.w3.org/2000/svg" width="75.961" height="58.647" viewBox="0 0 75.961 58.647">
  <path id="Path_247" data-name="Path 247" d="M99.5,114.575s3.6-.483,8.318,3.219l3.125-.863s-3.431-2.674-5.306-2.624S99.5,114.575,99.5,114.575Z" transform="translate(-60.341 -59.146)" fill="#5b752a" fill-rule="evenodd"/>
  <g id="Group_298" data-name="Group 298">
    <path id="Path_248" data-name="Path 248" d="M117.14,70.622c3.7,6.775,16.656,15.394,9.387,25.4-4.405,6.055-20.986,4.692-17.667-4.97.639-1.858,2.086-3.169,6.072-2.761-2.823-.063-5.748,4.073-3.313,5.519,5.055,2.879,9.871-.993,11.042-4.414C125.128,82.184,118.965,75.685,117.14,70.622Z" transform="translate(-61.38 -54.058)" fill="#5b752a" fill-rule="evenodd"/>
    <path id="Path_249" data-name="Path 249" d="M111.491,82.857C92.2,70.5,83.3,105.919,109.283,102.178,96.86,108.963,81.956,99.034,86.1,83.961c-6.758,1.158-15.633,4.976-22.085,8.28C71.673,102.8,84.262,108.428,101,109.908c-20.912,2.143-32.621-9.7-45.822-17.115C67.262,84.726,96.443,66.226,111.491,82.857Z" transform="translate(-55.178 -54.7)" fill="#5b752a" fill-rule="evenodd"/>
    <path id="Path_250" data-name="Path 250" d="M117.779,51.874c.773,14.923,23.138,18.809,19.876,38.645-1.461,8.887-9.346,12.8-18.219,15.458,6.074-3.848,13.458-6.493,14.908-13.8,2.9-14.621-11.643-22.221-17.115-30.366-.726,1.484-2.435,1.984-3.315,3.313C114.4,62.105,114.29,53.728,117.779,51.874Z" transform="translate(-62.019 -51.874)" fill="#5b752a" fill-rule="evenodd"/>
    <path id="Path_251" data-name="Path 251" d="M118.117,80.069s-5.577-12.2-35.1-.838C83.014,79.232,103.49,72.6,118.117,80.069Z" transform="translate(-58.42 -54.497)" fill="#5b752a" fill-rule="evenodd"/>
    <path id="Path_252" data-name="Path 252" d="M95.062,76.447c8-1.078,15.239.694,20.411,6.411-19.287-12.36-28.186,23.063-2.207,19.321-12.423,6.785-27.327-3.144-23.188-18.217A17.636,17.636,0,0,1,95.062,76.447Z" transform="translate(-59.161 -54.701)" fill="#5b752a" fill-rule="evenodd"/>
    <path id="Path_253" data-name="Path 253" d="M110.611,91.233s4.62-2.514,5.448-.723c0,0,.621,1.445-2.077,2.077,0,0,1.461-1.022.911-1.573-.416-.416-1.946-.118-2.732.949S110.611,91.233,110.611,91.233Z" transform="translate(-61.634 -56.299)" fill="#5b752a" fill-rule="evenodd"/>
    <path id="Path_254" data-name="Path 254" d="M118.119,69.76l1.486-2.77s.219,1.03.54,2.678a14.711,14.711,0,0,0,2.542,6.386c3.08,4.241-4.418-5.25-4.418-5.855Z" transform="translate(-62.509 -53.635)" fill="#5b752a" fill-rule="evenodd"/>
    <path id="Path_255" data-name="Path 255" d="M114.146,58.718s-1.24,7.1-5.365,9.668c0,0,2.616.591,7.274-4.961S114.146,58.718,114.146,58.718Z" transform="translate(-61.421 -52.666)" fill="#5b752a" fill-rule="evenodd"/>
  </g>
</svg>
