<svg xmlns="http://www.w3.org/2000/svg" width="95.306" height="107.616" viewBox="0 0 95.306 107.616">
  <g id="Group_538" data-name="Group 538" transform="translate(-379.244 -2013.592)">
    <path id="Path_420" data-name="Path 420" d="M125.344,263.168c0-2.9-2.012-4.627-5.563-4.627a12.159,12.159,0,0,0-2.945.28v9.305a11.039,11.039,0,0,0,2.382.185C123.007,268.312,125.344,266.4,125.344,263.168Z" transform="translate(279.08 1805.565)" fill="#dce0d4"/>
    <path id="Path_421" data-name="Path 421" d="M259.583,259.019a14.841,14.841,0,0,0-3.228.28v20.617a12.935,12.935,0,0,0,2.479.142c6.451.045,10.659-3.506,10.659-11.034C269.542,262.477,265.707,259.019,259.583,259.019Z" transform="translate(166.82 1805.181)" fill="#dce0d4"/>
    <path id="Path_422" data-name="Path 422" d="M120.778,38.494h-2.584V26.025a1.819,1.819,0,0,0-.023-.235,2.071,2.071,0,0,0-.5-1.367L96.922.722c-.006-.006-.012-.008-.017-.015a2.094,2.094,0,0,0-.42-.352C96.44.324,96.394.3,96.347.273A2.175,2.175,0,0,0,95.931.1c-.039-.011-.074-.027-.113-.037A2.105,2.105,0,0,0,95.333,0H44.34a4.225,4.225,0,0,0-4.22,4.22V38.493H37.536A6.032,6.032,0,0,0,31.5,44.525V75.893a6.033,6.033,0,0,0,6.032,6.031H40.12V103.4a4.225,4.225,0,0,0,4.22,4.22h69.634a4.226,4.226,0,0,0,4.22-4.22V81.924h2.584a6.033,6.033,0,0,0,6.032-6.031V44.526A6.032,6.032,0,0,0,120.778,38.494ZM44.34,4.221H93.223V25.813a2.111,2.111,0,0,0,2.11,2.11h18.641V38.5H44.34ZM96.147,60.377c0,6.033-2.2,10.192-5.24,12.765-3.316,2.758-8.366,4.067-14.536,4.067a61.942,61.942,0,0,1-8.089-.467V45.791a63.759,63.759,0,0,1,9.633-.654c5.981,0,9.862,1.076,12.9,3.366C94.089,50.934,96.147,54.814,96.147,60.377ZM41.116,76.883V45.791a58.571,58.571,0,0,1,9.632-.654c4.394,0,7.527.842,9.631,2.526a9.207,9.207,0,0,1,3.363,7.293,10.06,10.06,0,0,1-2.9,7.48c-2.431,2.291-6.03,3.321-10.239,3.321a17.841,17.841,0,0,1-2.43-.141V76.883H41.116Zm72.858,25.371H44.34V81.924h69.634v20.33Zm6.115-51.039H107.977v7.2h11.315v5.8H107.977v12.67h-7.15V45.371h19.261Z" transform="translate(347.74 2013.592)" fill="#dce0d4"/>
  </g>
</svg>
