<svg xmlns="http://www.w3.org/2000/svg" width="18.873" height="18.872" viewBox="0 0 18.873 18.872">
  <g id="call" transform="translate(-1 -1.018)">
    <g id="Group_264" data-name="Group 264" transform="translate(1 1.018)">
      <g id="Group_263" data-name="Group 263" transform="translate(0 0)">
        <path id="Path_206" data-name="Path 206" d="M19.378,15.577l-3.82-2.548a1.115,1.115,0,0,0-1.493.242L12.953,14.7a.476.476,0,0,1-.61.128l-.212-.117A12.792,12.792,0,0,1,8.8,12.1,12.844,12.844,0,0,1,6.179,8.762l-.116-.212a.476.476,0,0,1,.126-.612l1.43-1.112a1.116,1.116,0,0,0,.243-1.493L5.313,1.513a1.109,1.109,0,0,0-1.5-.337l-1.6.96A2.253,2.253,0,0,0,1.194,3.47c-.575,2.1-.142,5.713,5.186,11.042,4.239,4.238,7.394,5.378,9.563,5.378a5.572,5.572,0,0,0,1.478-.193,2.251,2.251,0,0,0,1.333-1.027l.961-1.6A1.109,1.109,0,0,0,19.378,15.577Zm-.206,1.173-.958,1.6a1.625,1.625,0,0,1-.959.744c-1.935.531-5.315.091-10.431-5.024S1.269,5.571,1.8,3.636a1.628,1.628,0,0,1,.744-.961l1.6-.958a.481.481,0,0,1,.649.146L6.175,3.941,7.336,5.683a.484.484,0,0,1-.105.648L5.8,7.443A1.1,1.1,0,0,0,5.51,8.856l.114.206a13.342,13.342,0,0,0,2.726,3.478,13.356,13.356,0,0,0,3.478,2.726l.207.114a1.1,1.1,0,0,0,1.413-.292l1.112-1.43a.484.484,0,0,1,.648-.105l3.82,2.548A.481.481,0,0,1,19.173,16.75Z" transform="translate(-1 -1.018)" fill="#fff"/>
        <path id="Path_207" data-name="Path 207" d="M282.943,69.953a5.353,5.353,0,0,1,5.347,5.347.314.314,0,1,0,.629,0,5.982,5.982,0,0,0-5.976-5.976.314.314,0,0,0,0,.629Z" transform="translate(-272.248 -66.806)" fill="#fff"/>
        <path id="Path_208" data-name="Path 208" d="M282.943,121.153a3.464,3.464,0,0,1,3.46,3.46.314.314,0,1,0,.629,0,4.093,4.093,0,0,0-4.089-4.089.314.314,0,0,0,0,.629Z" transform="translate(-272.248 -116.119)" fill="#fff"/>
        <path id="Path_209" data-name="Path 209" d="M282.942,172.353a1.574,1.574,0,0,1,1.573,1.573.314.314,0,0,0,.629,0,2.2,2.2,0,0,0-2.2-2.2.314.314,0,0,0,0,.629Z" transform="translate(-272.248 -165.432)" fill="#fff"/>
      </g>
    </g>
  </g>
</svg>
