<svg xmlns="http://www.w3.org/2000/svg" width="29.965" height="31.526" viewBox="0 0 29.965 31.526">
  <g id="Group_509" data-name="Group 509" transform="translate(0.001)">
    <path id="Path_395" data-name="Path 395" d="M37.255,6.462h-.81v-1.8A4.665,4.665,0,0,0,31.787,0H22.006a4.665,4.665,0,0,0-4.659,4.659v1.8h-.738a4.665,4.665,0,0,0-4.659,4.659v7.514a4.665,4.665,0,0,0,4.659,4.659h.732V29.2a2.331,2.331,0,0,0,2.326,2.326H34.113A2.331,2.331,0,0,0,36.439,29.2V23.293h.817a4.665,4.665,0,0,0,4.659-4.659V11.121A4.665,4.665,0,0,0,37.255,6.462ZM19.1,4.659A2.9,2.9,0,0,1,22,1.764h9.775a2.9,2.9,0,0,1,2.894,2.894v1.8H19.1Zm15.57,24.554a.566.566,0,0,1-.562.562H19.666a.566.566,0,0,1-.562-.562V19.471h15.57ZM40.15,18.641a2.9,2.9,0,0,1-2.894,2.894h-.81V19.471h1.163a.882.882,0,0,0,0-1.764H16.047a.882.882,0,1,0,0,1.764h1.3v2.065h-.738a2.9,2.9,0,0,1-2.894-2.894V11.127a2.9,2.9,0,0,1,2.894-2.894H37.255a2.9,2.9,0,0,1,2.894,2.894Z" transform="translate(-11.95)" fill="#bec7b0"/>
    <path id="Path_396" data-name="Path 396" d="M141.532,339.164h11.232a.882.882,0,0,0,0-1.764H141.532a.882.882,0,1,0,0,1.764Z" transform="translate(-132.241 -315.355)" fill="#bec7b0"/>
    <path id="Path_397" data-name="Path 397" d="M153.77,392.6H142.532a.882.882,0,0,0,0,1.764h11.232a.882.882,0,0,0,.007-1.764Z" transform="translate(-133.176 -366.948)" fill="#bec7b0"/>
    <path id="Path_398" data-name="Path 398" d="M360.722,151.9h-1.79a.882.882,0,1,0,0,1.764h1.79a.882.882,0,0,0,0-1.764Z" transform="translate(-335.436 -141.975)" fill="#bec7b0"/>
  </g>
</svg>
