<svg xmlns="http://www.w3.org/2000/svg" width="18.639" height="19.432" viewBox="0 0 18.639 19.432">
  <g id="share" transform="translate(-2.006)">
    <g id="Group_378" data-name="Group 378" transform="translate(2.006)">
      <path id="Path_335" data-name="Path 335" d="M17.217,12.35a3.365,3.365,0,0,0-2.675,1.357L8.725,10.632a3.628,3.628,0,0,0,.131-.916A3.6,3.6,0,0,0,8.7,8.722l5.791-3.061A3.368,3.368,0,0,0,17.218,7.08a3.483,3.483,0,0,0,3.427-3.54,3.427,3.427,0,1,0-6.851,0,3.612,3.612,0,0,0,.132.919L8.11,7.534A3.372,3.372,0,0,0,5.43,6.174,3.483,3.483,0,0,0,2.006,9.715a3.483,3.483,0,0,0,3.424,3.54,3.376,3.376,0,0,0,2.73-1.421L13.949,14.9a3.605,3.605,0,0,0-.157,1,3.427,3.427,0,1,0,3.425-3.541Z" transform="translate(-2.006)" fill="#5b752a"/>
    </g>
  </g>
</svg>
