<svg xmlns="http://www.w3.org/2000/svg" width="27.727" height="27.963" viewBox="0 0 27.727 27.963">
  <g id="share" transform="translate(-2.006)">
    <g id="Group_378" data-name="Group 378" transform="translate(2.006)">
      <path id="Path_335" data-name="Path 335" d="M24.634,17.772a5.062,5.062,0,0,0-3.98,1.952L12,15.3a5.062,5.062,0,0,0,.195-1.319,5.021,5.021,0,0,0-.232-1.429l8.615-4.4a5.073,5.073,0,1,0-1.037-3.053,5.04,5.04,0,0,0,.2,1.322l-8.652,4.425a5.091,5.091,0,1,0,.075,6.189l8.611,4.4a5.033,5.033,0,0,0-.233,1.433,5.1,5.1,0,1,0,5.095-5.1Z" transform="translate(-2.006)" fill="#fff"/>
    </g>
  </g>
</svg>
