<svg id="twitter-logo-silhouette" xmlns="http://www.w3.org/2000/svg" width="22.113" height="17.962" viewBox="0 0 22.113 17.962">
  <g id="Group_272" data-name="Group 272" transform="translate(0 0)">
    <path id="Path_227" data-name="Path 227" d="M22.114,59.566a9.059,9.059,0,0,1-2.6.714A4.555,4.555,0,0,0,21.5,57.773a9.145,9.145,0,0,1-2.882,1.1,4.54,4.54,0,0,0-7.73,4.136,12.879,12.879,0,0,1-9.349-4.74,4.542,4.542,0,0,0,1.4,6.055,4.537,4.537,0,0,1-2.055-.569v.057a4.541,4.541,0,0,0,3.638,4.448,4.6,4.6,0,0,1-1.2.159,4.354,4.354,0,0,1-.854-.084,4.539,4.539,0,0,0,4.237,3.151,9.1,9.1,0,0,1-5.634,1.939A9.641,9.641,0,0,1,0,73.362,12.823,12.823,0,0,0,6.954,75.4,12.817,12.817,0,0,0,19.861,62.5l-.015-.587A9.059,9.059,0,0,0,22.114,59.566Z" transform="translate(-0.001 -57.441)" fill="#fff"/>
  </g>
</svg>
