<svg xmlns="http://www.w3.org/2000/svg" width="158.141" height="141.735" viewBox="0 0 158.141 141.735">
  <g id="Group_301" data-name="Group 301" transform="translate(-44.012 -56.615)">
    <g id="Group_299" data-name="Group 299" transform="translate(60.316 56.615)">
      <path id="Path_247" data-name="Path 247" d="M99.5,114.75s5.954-.8,13.746,5.319l5.164-1.427s-5.67-4.42-8.769-4.337S99.5,114.75,99.5,114.75Z" transform="translate(-34.784 -23.148)" fill="#fff" fill-rule="evenodd"/>
      <g id="Group_298" data-name="Group 298">
        <path id="Path_248" data-name="Path 248" d="M122.828,70.622c6.109,11.2,27.526,25.44,15.514,41.971-7.28,10.006-34.681,7.753-29.2-8.213,1.056-3.071,3.447-5.237,10.035-4.563-4.665-.1-9.5,6.731-5.475,9.12,8.353,4.757,16.312-1.641,18.249-7.295C136.029,89.729,125.844,78.988,122.828,70.622Z" transform="translate(-30.678 -43.248)" fill="#fff" fill-rule="evenodd"/>
        <path id="Path_249" data-name="Path 249" d="M148.24,87.24c-31.874-20.426-46.581,38.113-3.647,31.93-20.531,11.214-45.161-5.2-38.321-30.1-11.168,1.914-25.835,8.223-36.5,13.684,12.662,17.447,33.467,26.751,61.129,29.2C96.345,135.488,77,115.911,55.178,103.662,75.148,90.329,123.373,59.756,148.24,87.24Z" transform="translate(-55.178 -40.709)" fill="#fff" fill-rule="evenodd"/>
        <path id="Path_250" data-name="Path 250" d="M120.3,51.874c1.278,24.661,38.238,31.084,32.847,63.866-2.415,14.687-15.445,21.16-30.109,25.546,10.038-6.359,22.24-10.73,24.637-22.81,4.788-24.163-19.241-36.722-28.284-50.183-1.2,2.453-4.024,3.279-5.478,5.475C114.719,68.782,114.536,54.937,120.3,51.874Z" transform="translate(-28.153 -51.874)" fill="#fff" fill-rule="evenodd"/>
        <path id="Path_251" data-name="Path 251" d="M141.024,83.775s-9.216-20.161-58.01-1.384C83.014,82.391,116.852,71.429,141.024,83.775Z" transform="translate(-42.37 -41.514)" fill="#fff" fill-rule="evenodd"/>
        <path id="Path_252" data-name="Path 252" d="M98.775,76.642C112,74.86,123.959,77.789,132.506,87.236c-31.874-20.426-46.581,38.113-3.647,31.93-20.531,11.214-45.161-5.2-38.321-30.1C90.538,89.061,92.85,81.533,98.775,76.642Z" transform="translate(-39.444 -40.705)" fill="#fff" fill-rule="evenodd"/>
        <path id="Path_253" data-name="Path 253" d="M110.611,92.125s7.635-4.154,9-1.194c0,0,1.026,2.387-3.433,3.433,0,0,2.415-1.689,1.505-2.6-.688-.688-3.217-.194-4.515,1.568S110.611,92.125,110.611,92.125Z" transform="translate(-29.672 -34.393)" fill="#fff" fill-rule="evenodd"/>
        <path id="Path_254" data-name="Path 254" d="M118.119,71.567l2.456-4.577s.362,1.7.892,4.426a24.311,24.311,0,0,0,4.2,10.554c5.09,7.009-7.3-8.676-7.3-9.676Z" transform="translate(-26.218 -44.919)" fill="#fff" fill-rule="evenodd"/>
        <path id="Path_255" data-name="Path 255" d="M117.647,58.748s-2.05,11.735-8.866,15.978c0,0,4.323.977,12.021-8.2S117.647,58.748,117.647,58.748Z" transform="translate(-30.514 -48.746)" fill="#fff" fill-rule="evenodd"/>
      </g>
    </g>
    <line id="Line_1" data-name="Line 1" x2="158.141" transform="translate(44.011 161.113)" fill="none" stroke="#fff" stroke-width="1"/>
    <g id="Group_300" data-name="Group 300" transform="translate(54.629 167.127)">
      <path id="Path_256" data-name="Path 256" d="M52.851,138.135l4.014-10.452h1.489l4.278,10.452H61.057l-1.219-3.166h-4.37l-1.149,3.166Zm3.015-4.293H59.41l-1.091-2.894q-.5-1.321-.742-2.167a13.276,13.276,0,0,1-.564,2Z" transform="translate(-50.562 -127.505)" fill="#fff"/>
      <path id="Path_257" data-name="Path 257" d="M60.185,137.281v-7.572H61.34v1.148a3.105,3.105,0,0,1,.816-1.062,1.428,1.428,0,0,1,.824-.257,2.513,2.513,0,0,1,1.318.413l-.442,1.191a1.834,1.834,0,0,0-.94-.279,1.221,1.221,0,0,0-.756.254,1.361,1.361,0,0,0-.477.7,4.977,4.977,0,0,0-.213,1.5v3.964Z" transform="translate(-47.187 -126.651)" fill="#fff"/>
      <path id="Path_258" data-name="Path 258" d="M68.6,136.347a4.745,4.745,0,0,1-1.373.856,3.962,3.962,0,0,1-1.415.25,2.752,2.752,0,0,1-1.919-.61,2.007,2.007,0,0,1-.669-1.556,2.061,2.061,0,0,1,.253-1.016,2.094,2.094,0,0,1,.663-.739,3.151,3.151,0,0,1,.923-.421,8.773,8.773,0,0,1,1.142-.191,11.807,11.807,0,0,0,2.288-.442c0-.175.007-.288.007-.336a1.419,1.419,0,0,0-.364-1.105,2.152,2.152,0,0,0-1.462-.434,2.266,2.266,0,0,0-1.337.317,1.942,1.942,0,0,0-.638,1.123l-1.254-.171a3.1,3.1,0,0,1,.564-1.3,2.47,2.47,0,0,1,1.133-.761,5.02,5.02,0,0,1,1.719-.269,4.553,4.553,0,0,1,1.575.228,2.092,2.092,0,0,1,.891.574,2.019,2.019,0,0,1,.4.875,7.247,7.247,0,0,1,.064,1.183v1.711a17.991,17.991,0,0,0,.082,2.263,2.819,2.819,0,0,0,.324.91h-1.34A2.735,2.735,0,0,1,68.6,136.347ZM68.5,133.48a9.409,9.409,0,0,1-2.1.485,4.846,4.846,0,0,0-1.118.257,1.114,1.114,0,0,0-.507.418,1.134,1.134,0,0,0,.21,1.465,1.673,1.673,0,0,0,1.137.342,2.66,2.66,0,0,0,1.318-.323,2,2,0,0,0,.848-.889,3.076,3.076,0,0,0,.207-1.282Z" transform="translate(-45.787 -126.651)" fill="#fff"/>
      <path id="Path_259" data-name="Path 259" d="M70.271,138.135h-1.19V127.683h1.283v3.728a2.537,2.537,0,0,1,2.075-1.019,3.193,3.193,0,0,1,1.323.282,2.709,2.709,0,0,1,1.026.79,3.839,3.839,0,0,1,.631,1.231,5.085,5.085,0,0,1,.228,1.54,4.325,4.325,0,0,1-.962,3.008,3.006,3.006,0,0,1-2.31,1.063,2.414,2.414,0,0,1-2.1-1.12Zm-.013-3.843a3.92,3.92,0,0,0,.371,1.968,1.835,1.835,0,0,0,3.094.26,3.322,3.322,0,0,0,.613-2.179,3.382,3.382,0,0,0-.588-2.189,1.792,1.792,0,0,0-1.422-.705,1.844,1.844,0,0,0-1.454.73A3.208,3.208,0,0,0,70.258,134.291Z" transform="translate(-43.094 -127.505)" fill="#fff"/>
      <path id="Path_260" data-name="Path 260" d="M76.2,138.135l4.014-10.452H81.7l4.277,10.452H84.406l-1.219-3.166h-4.37l-1.148,3.166Zm3.017-4.293h3.542l-1.091-2.894q-.5-1.321-.74-2.167a13.452,13.452,0,0,1-.564,2Z" transform="translate(-39.818 -127.505)" fill="#fff"/>
      <path id="Path_261" data-name="Path 261" d="M83.544,137.281v-7.572H84.7v1.078a2.721,2.721,0,0,1,2.409-1.248,3.193,3.193,0,0,1,1.259.245,1.987,1.987,0,0,1,.859.645,2.465,2.465,0,0,1,.4.949,7.264,7.264,0,0,1,.072,1.247v4.656H88.413v-4.607a3.417,3.417,0,0,0-.15-1.171,1.232,1.232,0,0,0-.53-.622,1.705,1.705,0,0,0-.9-.231,2.078,2.078,0,0,0-1.415.52,2.569,2.569,0,0,0-.6,1.976v4.135Z" transform="translate(-36.439 -126.651)" fill="#fff"/>
      <path id="Path_262" data-name="Path 262" d="M92.129,136.913l.185,1.133a4.754,4.754,0,0,1-.97.114,2.21,2.21,0,0,1-1.083-.22,1.242,1.242,0,0,1-.542-.581,4.588,4.588,0,0,1-.156-1.516v-4.356h-.942v-1h.942v-1.875l1.276-.769v2.644h1.289v1H90.84v4.427a2.229,2.229,0,0,0,.067.705.537.537,0,0,0,.22.25.859.859,0,0,0,.44.093A4.355,4.355,0,0,0,92.129,136.913Z" transform="translate(-34.103 -127.431)" fill="#fff"/>
      <path id="Path_263" data-name="Path 263" d="M91.889,129.158v-1.475h1.283v1.475Zm0,8.977v-7.572h1.283v7.572Z" transform="translate(-32.6 -127.505)" fill="#fff"/>
      <path id="Path_264" data-name="Path 264" d="M93.764,133.1v-1.289h3.942V133.1Z" transform="translate(-31.737 -125.606)" fill="#fff"/>
      <path id="Path_265" data-name="Path 265" d="M105.131,134.526l1.383.349a4.651,4.651,0,0,1-1.565,2.6,4.31,4.31,0,0,1-2.761.894,4.946,4.946,0,0,1-2.748-.689,4.276,4.276,0,0,1-1.612-1.992,7.092,7.092,0,0,1-.553-2.8,6.159,6.159,0,0,1,.625-2.849,4.26,4.26,0,0,1,1.774-1.846,5.172,5.172,0,0,1,2.535-.631,4.291,4.291,0,0,1,2.638.8,4.148,4.148,0,0,1,1.489,2.246l-1.361.321a3.226,3.226,0,0,0-1.056-1.66,2.806,2.806,0,0,0-1.739-.521,3.373,3.373,0,0,0-2.014.578,3.032,3.032,0,0,0-1.137,1.551,6.22,6.22,0,0,0-.329,2.006,6.406,6.406,0,0,0,.388,2.329,2.894,2.894,0,0,0,1.209,1.485,3.379,3.379,0,0,0,1.774.492,2.975,2.975,0,0,0,1.968-.67A3.417,3.417,0,0,0,105.131,134.526Z" transform="translate(-30.122 -127.561)" fill="#fff"/>
      <path id="Path_266" data-name="Path 266" d="M104.33,133.495a3.9,3.9,0,0,1,1.17-3.116,3.523,3.523,0,0,1,2.381-.841,3.391,3.391,0,0,1,2.552,1.024,3.9,3.9,0,0,1,.99,2.827,4.989,4.989,0,0,1-.438,2.3,3.114,3.114,0,0,1-1.275,1.3,3.716,3.716,0,0,1-1.83.463,3.4,3.4,0,0,1-2.571-1.019A4.077,4.077,0,0,1,104.33,133.495Zm1.318,0a3.219,3.219,0,0,0,.635,2.177,2.113,2.113,0,0,0,3.187,0,3.3,3.3,0,0,0,.634-2.216,3.132,3.132,0,0,0-.637-2.129,2.118,2.118,0,0,0-3.185,0A3.208,3.208,0,0,0,105.648,133.495Z" transform="translate(-26.875 -126.651)" fill="#fff"/>
      <path id="Path_267" data-name="Path 267" d="M110.209,137.281v-7.572h1.155v1.148a3.105,3.105,0,0,1,.818-1.062,1.417,1.417,0,0,1,.822-.257,2.509,2.509,0,0,1,1.318.413l-.441,1.191a1.839,1.839,0,0,0-.942-.279,1.224,1.224,0,0,0-.756.254,1.37,1.37,0,0,0-.477.7,5.023,5.023,0,0,0-.213,1.5v3.964Z" transform="translate(-24.17 -126.651)" fill="#fff"/>
      <path id="Path_268" data-name="Path 268" d="M113.539,137.281v-7.572h1.155v1.148a3.105,3.105,0,0,1,.818-1.062,1.42,1.42,0,0,1,.822-.257,2.509,2.509,0,0,1,1.318.413l-.441,1.191a1.839,1.839,0,0,0-.942-.279,1.217,1.217,0,0,0-.755.254,1.363,1.363,0,0,0-.479.7,5.024,5.024,0,0,0-.213,1.5v3.964Z" transform="translate(-22.638 -126.651)" fill="#fff"/>
      <path id="Path_269" data-name="Path 269" d="M121.85,137.227v-1.113a2.769,2.769,0,0,1-2.4,1.283,3.077,3.077,0,0,1-1.253-.257,2.049,2.049,0,0,1-.86-.644,2.423,2.423,0,0,1-.4-.953,6.475,6.475,0,0,1-.079-1.2v-4.691h1.283v4.2a7.442,7.442,0,0,0,.079,1.355,1.339,1.339,0,0,0,.514.794,1.575,1.575,0,0,0,.97.289,2.117,2.117,0,0,0,1.083-.295,1.645,1.645,0,0,0,.715-.807,4,4,0,0,0,.212-1.478v-4.058H123v7.572Z" transform="translate(-21.11 -126.598)" fill="#fff"/>
      <path id="Path_270" data-name="Path 270" d="M122.44,140.182V129.709h1.17v.984a2.913,2.913,0,0,1,.934-.867,2.574,2.574,0,0,1,1.262-.288,3,3,0,0,1,1.711.5,3.053,3.053,0,0,1,1.12,1.409,5.143,5.143,0,0,1,.377,1.992,5.069,5.069,0,0,1-.416,2.092,3.144,3.144,0,0,1-1.212,1.425,3.1,3.1,0,0,1-1.672.5,2.4,2.4,0,0,1-1.151-.272,2.632,2.632,0,0,1-.84-.683v3.685Zm1.162-6.645a3.292,3.292,0,0,0,.593,2.161,1.813,1.813,0,0,0,1.432.7,1.849,1.849,0,0,0,1.464-.724,3.424,3.424,0,0,0,.61-2.241,3.342,3.342,0,0,0-.6-2.167,1.79,1.79,0,0,0-1.422-.72,1.843,1.843,0,0,0-1.45.765A3.426,3.426,0,0,0,123.6,133.537Z" transform="translate(-18.542 -126.651)" fill="#fff"/>
      <path id="Path_271" data-name="Path 271" d="M131.026,136.913l.185,1.133a4.765,4.765,0,0,1-.97.114,2.2,2.2,0,0,1-1.083-.22,1.245,1.245,0,0,1-.543-.581,4.63,4.63,0,0,1-.156-1.516v-4.356h-.94v-1h.94v-1.875l1.276-.769v2.644h1.291v1h-1.291v4.427a2.275,2.275,0,0,0,.067.705.533.533,0,0,0,.222.25.857.857,0,0,0,.438.093A4.353,4.353,0,0,0,131.026,136.913Z" transform="translate(-16.206 -127.431)" fill="#fff"/>
      <path id="Path_272" data-name="Path 272" d="M130.785,129.158v-1.475h1.283v1.475Zm0,8.977v-7.572h1.283v7.572Z" transform="translate(-14.703 -127.505)" fill="#fff"/>
      <path id="Path_273" data-name="Path 273" d="M132.675,133.495a3.9,3.9,0,0,1,1.17-3.116,3.521,3.521,0,0,1,2.38-.841,3.391,3.391,0,0,1,2.552,1.024,3.89,3.89,0,0,1,.991,2.827,5.008,5.008,0,0,1-.438,2.3,3.112,3.112,0,0,1-1.278,1.3,3.7,3.7,0,0,1-1.828.463,3.4,3.4,0,0,1-2.568-1.019A4.065,4.065,0,0,1,132.675,133.495Zm1.318,0a3.219,3.219,0,0,0,.635,2.177,2.111,2.111,0,0,0,3.186,0,3.3,3.3,0,0,0,.635-2.216,3.125,3.125,0,0,0-.64-2.129,2.115,2.115,0,0,0-3.182,0A3.208,3.208,0,0,0,133.993,133.495Z" transform="translate(-13.833 -126.651)" fill="#fff"/>
      <path id="Path_274" data-name="Path 274" d="M138.563,137.281v-7.572h1.155v1.078a2.722,2.722,0,0,1,2.411-1.248,3.191,3.191,0,0,1,1.257.245,1.984,1.984,0,0,1,.86.645,2.464,2.464,0,0,1,.4.949,7.261,7.261,0,0,1,.072,1.247v4.656h-1.283v-4.607a3.461,3.461,0,0,0-.149-1.171,1.246,1.246,0,0,0-.53-.622,1.707,1.707,0,0,0-.9-.231,2.077,2.077,0,0,0-1.413.52,2.563,2.563,0,0,0-.6,1.976v4.135Z" transform="translate(-11.124 -126.651)" fill="#fff"/>
      <path id="Path_275" data-name="Path 275" d="M56.658,148.347a4.745,4.745,0,0,1-1.373.856,3.961,3.961,0,0,1-1.415.25,2.745,2.745,0,0,1-1.917-.61,2,2,0,0,1-.67-1.556,2.061,2.061,0,0,1,.253-1.016,2.094,2.094,0,0,1,.663-.739,3.15,3.15,0,0,1,.923-.421,8.816,8.816,0,0,1,1.142-.191,11.784,11.784,0,0,0,2.288-.442c.006-.175.007-.288.007-.336a1.419,1.419,0,0,0-.364-1.105,2.152,2.152,0,0,0-1.462-.434,2.266,2.266,0,0,0-1.337.317,1.95,1.95,0,0,0-.638,1.123L51.5,143.87a3.119,3.119,0,0,1,.564-1.3,2.47,2.47,0,0,1,1.133-.761,5.027,5.027,0,0,1,1.719-.269,4.554,4.554,0,0,1,1.575.228,2.092,2.092,0,0,1,.891.574,2,2,0,0,1,.4.875,7.248,7.248,0,0,1,.064,1.183v1.711a17.992,17.992,0,0,0,.082,2.263,2.819,2.819,0,0,0,.324.91h-1.34A2.735,2.735,0,0,1,56.658,148.347Zm-.107-2.866a9.413,9.413,0,0,1-2.1.485,4.844,4.844,0,0,0-1.12.257,1.114,1.114,0,0,0-.507.418,1.134,1.134,0,0,0,.21,1.465,1.675,1.675,0,0,0,1.137.342,2.657,2.657,0,0,0,1.318-.323,2,2,0,0,0,.848-.889,3.076,3.076,0,0,0,.207-1.282Z" transform="translate(-51.283 -121.13)" fill="#fff"/>
      <path id="Path_276" data-name="Path 276" d="M57.142,149.281v-7.572H58.3v1.078a2.721,2.721,0,0,1,2.409-1.248,3.193,3.193,0,0,1,1.259.245,1.993,1.993,0,0,1,.86.645,2.486,2.486,0,0,1,.4.949,7.264,7.264,0,0,1,.072,1.247v4.656H62.011v-4.607a3.417,3.417,0,0,0-.15-1.171,1.231,1.231,0,0,0-.53-.622,1.705,1.705,0,0,0-.9-.231,2.081,2.081,0,0,0-1.415.52,2.569,2.569,0,0,0-.6,1.976v4.135Z" transform="translate(-48.587 -121.13)" fill="#fff"/>
      <path id="Path_277" data-name="Path 277" d="M67.762,150.135v-.956a2.353,2.353,0,0,1-2.117,1.127,2.971,2.971,0,0,1-1.666-.5,3.272,3.272,0,0,1-1.175-1.394,4.8,4.8,0,0,1-.418-2.056,5.388,5.388,0,0,1,.378-2.056,2.978,2.978,0,0,1,1.133-1.416,3.031,3.031,0,0,1,1.691-.492,2.513,2.513,0,0,1,2.088,1.041v-3.75h1.276v10.452Zm-4.056-3.779a3.3,3.3,0,0,0,.612,2.174,1.85,1.85,0,0,0,1.448.72,1.819,1.819,0,0,0,1.429-.686,3.182,3.182,0,0,0,.588-2.1,3.552,3.552,0,0,0-.6-2.281,1.84,1.84,0,0,0-1.475-.727,1.777,1.777,0,0,0-1.429.7A3.441,3.441,0,0,0,63.706,146.356Z" transform="translate(-46.174 -121.983)" fill="#fff"/>
      <path id="Path_278" data-name="Path 278" d="M71.317,150.135V139.683H72.7v10.452Z" transform="translate(-42.065 -121.983)" fill="#fff"/>
      <path id="Path_279" data-name="Path 279" d="M73.822,149.281v-7.572h1.155v1.078a2.721,2.721,0,0,1,2.409-1.248,3.193,3.193,0,0,1,1.259.245,1.987,1.987,0,0,1,.859.645,2.465,2.465,0,0,1,.4.949,7.264,7.264,0,0,1,.072,1.247v4.656H78.691v-4.607a3.417,3.417,0,0,0-.15-1.171,1.227,1.227,0,0,0-.531-.622,1.7,1.7,0,0,0-.894-.231,2.085,2.085,0,0,0-1.416.52,2.569,2.569,0,0,0-.594,1.976v4.135Z" transform="translate(-40.912 -121.13)" fill="#fff"/>
      <path id="Path_280" data-name="Path 280" d="M82.407,148.913l.185,1.133a4.766,4.766,0,0,1-.97.114,2.21,2.21,0,0,1-1.083-.22,1.242,1.242,0,0,1-.542-.581,4.576,4.576,0,0,1-.158-1.516v-4.356H78.9v-1h.94v-1.875l1.276-.77v2.644h1.291v1H81.116v4.427a2.213,2.213,0,0,0,.069.705.529.529,0,0,0,.22.25.859.859,0,0,0,.439.093A4.355,4.355,0,0,0,82.407,148.913Z" transform="translate(-38.576 -121.909)" fill="#fff"/>
      <path id="Path_281" data-name="Path 281" d="M87.479,146.843l1.327.164a3.242,3.242,0,0,1-1.162,1.8,3.507,3.507,0,0,1-2.168.641,3.461,3.461,0,0,1-2.634-1.024,4,4,0,0,1-.972-2.869,4.183,4.183,0,0,1,.983-2.965,3.332,3.332,0,0,1,2.554-1.056,3.238,3.238,0,0,1,2.481,1.034,4.11,4.11,0,0,1,.962,2.909c0,.076,0,.19-.007.343H83.195a2.919,2.919,0,0,0,.705,1.91,2.1,2.1,0,0,0,1.583.663,1.964,1.964,0,0,0,1.2-.371A2.441,2.441,0,0,0,87.479,146.843Zm-4.212-2.075h4.227a2.557,2.557,0,0,0-.485-1.432,1.965,1.965,0,0,0-1.59-.742,2.032,2.032,0,0,0-1.486.591A2.341,2.341,0,0,0,83.266,144.768Z" transform="translate(-37.21 -121.13)" fill="#fff"/>
      <path id="Path_282" data-name="Path 282" d="M87.643,149.907l1.248.185a1.191,1.191,0,0,0,.434.842,2.138,2.138,0,0,0,1.305.356,2.286,2.286,0,0,0,1.375-.356,1.758,1.758,0,0,0,.656-1,8.159,8.159,0,0,0,.093-1.647,2.643,2.643,0,0,1-2.1.991,2.857,2.857,0,0,1-2.416-1.127,4.341,4.341,0,0,1-.856-2.7,5.035,5.035,0,0,1,.393-2,3.124,3.124,0,0,1,1.137-1.415,3.065,3.065,0,0,1,1.749-.5,2.714,2.714,0,0,1,2.211,1.083v-.913H94.06v6.546a6.215,6.215,0,0,1-.361,2.506,2.644,2.644,0,0,1-1.14,1.165,3.944,3.944,0,0,1-1.922.428,3.625,3.625,0,0,1-2.189-.609A2.064,2.064,0,0,1,87.643,149.907Zm1.063-4.548a3.282,3.282,0,0,0,.591,2.174,1.952,1.952,0,0,0,2.965,0,3.18,3.18,0,0,0,.6-2.135,3.1,3.1,0,0,0-.616-2.1,1.909,1.909,0,0,0-1.486-.705,1.855,1.855,0,0,0-1.454.694A3.089,3.089,0,0,0,88.706,145.359Z" transform="translate(-34.671 -121.13)" fill="#fff"/>
      <path id="Path_283" data-name="Path 283" d="M93.275,149.281v-7.572h1.154v1.148a3.142,3.142,0,0,1,.818-1.061,1.425,1.425,0,0,1,.824-.257,2.521,2.521,0,0,1,1.32.413l-.442,1.191a1.839,1.839,0,0,0-.942-.279,1.214,1.214,0,0,0-.755.254,1.363,1.363,0,0,0-.479.7,4.976,4.976,0,0,0-.215,1.5v3.964Z" transform="translate(-31.962 -121.13)" fill="#fff"/>
      <path id="Path_284" data-name="Path 284" d="M96.62,141.158v-1.475H97.9v1.475Zm0,8.977v-7.572H97.9v7.572Z" transform="translate(-30.423 -121.983)" fill="#fff"/>
      <path id="Path_285" data-name="Path 285" d="M101.861,148.913l.185,1.133a4.765,4.765,0,0,1-.97.114,2.2,2.2,0,0,1-1.083-.22,1.235,1.235,0,0,1-.542-.581,4.575,4.575,0,0,1-.158-1.516v-4.356h-.942v-1h.942v-1.875l1.276-.77v2.644h1.291v1H100.57v4.427a2.275,2.275,0,0,0,.067.705.532.532,0,0,0,.222.25.857.857,0,0,0,.438.093A4.352,4.352,0,0,0,101.861,148.913Z" transform="translate(-29.626 -121.909)" fill="#fff"/>
      <path id="Path_286" data-name="Path 286" d="M101.787,152.143l-.143-1.2a2.942,2.942,0,0,0,.734.114,1.392,1.392,0,0,0,.685-.143,1.168,1.168,0,0,0,.421-.4,6.2,6.2,0,0,0,.393-.956c.023-.07.061-.175.114-.312l-2.874-7.587H102.5l1.577,4.385c.2.556.387,1.14.548,1.754a17.225,17.225,0,0,1,.529-1.724l1.618-4.414h1.283l-2.881,7.7a14.949,14.949,0,0,1-.72,1.717,2.54,2.54,0,0,1-.784.932,1.85,1.85,0,0,1-1.054.295A2.6,2.6,0,0,1,101.787,152.143Z" transform="translate(-28.354 -121.076)" fill="#fff"/>
      <path id="Path_287" data-name="Path 287" d="M109.5,150.135V139.683h1.419l5.49,8.206v-8.206h1.326v10.452h-1.419l-5.49-8.213v8.213Z" transform="translate(-24.499 -121.983)" fill="#fff"/>
      <path id="Path_288" data-name="Path 288" d="M121.933,146.843l1.326.164a3.235,3.235,0,0,1-1.162,1.8,3.5,3.5,0,0,1-2.167.641,3.456,3.456,0,0,1-2.634-1.024,3.992,3.992,0,0,1-.974-2.869,4.183,4.183,0,0,1,.984-2.965,3.329,3.329,0,0,1,2.552-1.056,3.236,3.236,0,0,1,2.481,1.034,4.1,4.1,0,0,1,.962,2.909c0,.076,0,.19-.006.343h-5.648a2.912,2.912,0,0,0,.707,1.91,2.1,2.1,0,0,0,1.583.663,1.967,1.967,0,0,0,1.2-.371A2.461,2.461,0,0,0,121.933,146.843Zm-4.214-2.075h4.229a2.557,2.557,0,0,0-.485-1.432,1.967,1.967,0,0,0-1.59-.742,2.04,2.04,0,0,0-1.488.591A2.354,2.354,0,0,0,117.719,144.768Z" transform="translate(-21.357 -121.13)" fill="#fff"/>
      <path id="Path_289" data-name="Path 289" d="M125.2,148.913l.185,1.133a4.765,4.765,0,0,1-.97.114,2.213,2.213,0,0,1-1.085-.22,1.249,1.249,0,0,1-.542-.581,4.63,4.63,0,0,1-.156-1.516v-4.356h-.942v-1h.942v-1.875l1.276-.77v2.644H125.2v1H123.91v4.427a2.275,2.275,0,0,0,.067.705.532.532,0,0,0,.222.25.853.853,0,0,0,.438.093A4.374,4.374,0,0,0,125.2,148.913Z" transform="translate(-18.887 -121.909)" fill="#fff"/>
      <path id="Path_290" data-name="Path 290" d="M126.642,149.227l-2.317-7.572h1.326l1.206,4.37.448,1.627q.028-.123.393-1.562l1.2-4.434h1.319l1.134,4.392.377,1.447.435-1.462,1.3-4.377h1.247l-2.367,7.572h-1.333l-1.2-4.535-.292-1.289-1.533,5.824Z" transform="translate(-17.675 -121.076)" fill="#fff"/>
      <path id="Path_291" data-name="Path 291" d="M131.849,145.495a3.9,3.9,0,0,1,1.168-3.116,3.528,3.528,0,0,1,2.381-.841,3.391,3.391,0,0,1,2.552,1.024,3.9,3.9,0,0,1,.991,2.827,5.027,5.027,0,0,1-.438,2.3,3.112,3.112,0,0,1-1.278,1.3,3.706,3.706,0,0,1-1.828.463,3.4,3.4,0,0,1-2.57-1.019A4.071,4.071,0,0,1,131.849,145.495Zm1.318,0a3.219,3.219,0,0,0,.634,2.177,2.113,2.113,0,0,0,3.187,0,3.3,3.3,0,0,0,.635-2.216,3.125,3.125,0,0,0-.64-2.129,2.116,2.116,0,0,0-3.183,0A3.208,3.208,0,0,0,133.167,145.495Z" transform="translate(-14.213 -121.13)" fill="#fff"/>
      <path id="Path_292" data-name="Path 292" d="M137.728,149.281v-7.572h1.155v1.148a3.123,3.123,0,0,1,.818-1.061,1.421,1.421,0,0,1,.824-.257,2.516,2.516,0,0,1,1.318.413l-.442,1.191a1.838,1.838,0,0,0-.94-.279,1.218,1.218,0,0,0-.756.254,1.361,1.361,0,0,0-.477.7,4.976,4.976,0,0,0-.215,1.5v3.964Z" transform="translate(-11.508 -121.13)" fill="#fff"/>
      <path id="Path_293" data-name="Path 293" d="M141.072,150.135V139.683h1.283v5.96l3.037-3.081h1.662l-2.9,2.809,3.187,4.763h-1.583l-2.5-3.872-.905.87v3Z" transform="translate(-9.97 -121.983)" fill="#fff"/>
    </g>
  </g>
</svg>
